<svg xmlns="http://www.w3.org/2000/svg" width="90" height="80"><g fill="none" fill-rule="evenodd"><path fill="#000" d="M17.435 36.014c.028-.12-.036-.19-.141-.19H15.05c-.12 0-.19.049-.227.169l-2.291 7.752h-.056l-2.356-7.752c-.035-.12-.107-.17-.226-.17H7.631c-.12 0-.19.071-.155.191L11.23 47.46c.037.106.1.177.227.177h2.016c.099 0 .17-.071.204-.177l3.757-11.445zm5.56 11.445V35.993c0-.099-.071-.17-.177-.17h-2.207c-.107 0-.177.071-.177.17v11.466c0 .106.07.177.177.177h2.207c.106 0 .177-.071.177-.177zM34.7 31.26l-9.663-14.4h-15.9l9.634 14.4H34.7zm.48 7.2c.1-.035.142-.12.092-.205-.665-1.654-2.12-2.624-4.115-2.624-2.074 0-3.58.97-4.202 2.9-.27.764-.333 1.372-.333 3.198 0 1.824.063 2.433.333 3.196.622 1.924 2.128 2.9 4.202 2.9 1.994 0 3.45-.976 4.115-2.624.05-.085.007-.169-.091-.205l-1.896-.856c-.106-.05-.192-.014-.234.093-.34.763-.89 1.336-1.881 1.336-.92 0-1.514-.488-1.768-1.309-.141-.43-.191-.848-.191-2.531 0-1.684.05-2.101.19-2.54.255-.813.85-1.302 1.769-1.302.99 0 1.541.573 1.88 1.338.043.106.129.14.235.091l1.896-.856zm11.473-.537v-1.931c0-.099-.07-.17-.176-.17h-8.736c-.105 0-.184.071-.184.17v1.93c0 .107.079.178.184.178h2.977c.079 0 .114.035.114.1v9.258c0 .106.064.177.17.177h2.214c.099 0 .162-.071.162-.177V38.2c0-.064.043-.1.107-.1h2.992c.105 0 .176-.07.176-.176zm-1.57 32.65l12.3-18.376H32.79l12.294 18.375zM58.416 41.73c0-1.755-.07-2.413-.338-3.233-.601-1.91-2.236-2.865-4.3-2.865-2.066 0-3.708.956-4.308 2.865-.27.82-.333 1.478-.333 3.233 0 1.754.063 2.411.333 3.232.6 1.91 2.242 2.865 4.307 2.865 2.065 0 3.7-.956 4.3-2.865.269-.82.34-1.478.34-3.232zm12.627 5.906c.127 0 .177-.106.127-.213l-2.334-4.654c1.308-.572 2.107-1.768 2.107-3.282 0-2.15-1.605-3.664-4.017-3.664h-4.704c-.105 0-.176.071-.176.17v11.466c0 .106.07.177.176.177h2.207c.098 0 .17-.071.17-.177v-4.216c0-.07.036-.106.106-.106h1.57l2.044 4.322c.05.127.099.177.255.177h2.469zm.346-16.375l9.633-14.4H65.13l-9.654 14.4H71.39zm11.289 4.732c.056-.085 0-.17-.113-.17h-2.192c-.121 0-.207.05-.263.17l-2.136 4.308h-.056l-2.13-4.308a.272.272 0 00-.26-.17H73.27c-.127 0-.155.085-.127.17l3.495 6.932v4.534c0 .106.07.177.176.177h2.207c.106 0 .17-.071.17-.177v-4.534l3.487-6.932zM89.935 12.1l-12.81 19.16h10.037v20.937H63.114l-18.03 26.949-18.03-26.949H2.998V31.261h10.045L.219 12.1h27.359L40.43 31.26h9.308l12.86-19.16h27.337z"/><path fill="#FFF" d="M82.565 35.823c.113 0 .169.085.113.17l-3.487 6.932v4.534c0 .106-.063.177-.17.177h-2.207c-.106 0-.177-.071-.177-.177v-4.534l-3.494-6.932c-.029-.085 0-.17.128-.17h2.256c.113 0 .205.05.262.17l2.128 4.308h.057l2.136-4.308c.057-.12.141-.17.262-.17h2.193zM81.023 16.86l-9.634 14.401H55.475l9.654-14.4zM66.792 40.966c.969 0 1.59-.574 1.59-1.479 0-.884-.621-1.457-1.59-1.457h-2.087c-.07 0-.106.035-.106.106v2.723c0 .071.035.107.106.107h2.087zm4.378 6.457c.05.106 0 .212-.128.212h-2.468c-.156 0-.205-.049-.254-.176l-2.045-4.322h-1.57c-.07 0-.106.035-.106.106v4.216c0 .106-.071.176-.17.176h-2.207c-.106 0-.177-.07-.177-.176V35.993c0-.1.071-.17.177-.17h4.704c2.411 0 4.018 1.513 4.018 3.664 0 1.514-.8 2.709-2.108 3.282l2.334 4.654z"/><path fill="#271F10" d="M68.383 39.487c0 .905-.622 1.479-1.591 1.479h-2.087c-.07 0-.106-.036-.106-.107v-2.723c0-.07.035-.106.106-.106h2.087c.969 0 1.59.573 1.59 1.457"/><path fill="#FFF" d="M55.828 41.73c0-1.55-.056-2.122-.191-2.54-.261-.813-.899-1.301-1.86-1.301-.976 0-1.606.488-1.86 1.301-.142.418-.191.99-.191 2.54 0 1.54.049 2.121.191 2.532.254.82.884 1.308 1.86 1.308.961 0 1.599-.488 1.86-1.308.135-.41.191-.991.191-2.532m2.249-3.233c.27.82.34 1.478.34 3.233 0 1.753-.07 2.411-.34 3.232-.6 1.91-2.235 2.864-4.3 2.864s-3.707-.954-4.307-2.864c-.27-.82-.333-1.479-.333-3.232 0-1.755.064-2.413.333-3.233.6-1.91 2.242-2.864 4.307-2.864 2.065 0 3.7.954 4.3 2.864m-.692 13.701l-12.3 18.376L32.79 52.198z"/><path fill="#271F10" d="M55.828 41.73c0 1.54-.057 2.121-.19 2.532-.262.82-.9 1.308-1.861 1.308-.975 0-1.606-.488-1.86-1.308-.142-.41-.191-.991-.191-2.532 0-1.55.049-2.122.19-2.54.255-.813.886-1.301 1.86-1.301.962 0 1.6.488 1.861 1.301.134.418.191.99.191 2.54z"/><path fill="#000" d="M55.163 7.545l-6.203 4.534 2.348 7.314-6.224-4.506-6.225 4.506 2.357-7.314-6.212-4.534 7.69-.015 2.39-7.306 2.397 7.306z"/><path fill="#FFF" d="M46.654 35.993v1.93c0 .107-.07.178-.176.178h-2.992c-.064 0-.107.035-.107.1v9.258c0 .106-.063.177-.162.177h-2.214c-.107 0-.17-.071-.17-.177V38.2c0-.064-.035-.1-.114-.1h-2.977c-.106 0-.184-.07-.184-.176v-1.93c0-.1.078-.17.184-.17h8.736c.105 0 .176.07.176.17m-11.381 2.262c.05.085.008.17-.092.206l-1.895.855c-.106.05-.191.014-.234-.092-.34-.763-.89-1.337-1.88-1.337-.92 0-1.515.488-1.769 1.302-.142.438-.19.856-.19 2.54 0 1.683.048 2.1.19 2.532.254.82.85 1.308 1.768 1.308.99 0 1.542-.573 1.881-1.337.043-.106.128-.141.234-.091l1.895.855c.1.035.142.12.092.205-.664 1.648-2.121 2.624-4.116 2.624-2.073 0-3.579-.976-4.2-2.9-.27-.763-.333-1.372-.333-3.197s.063-2.433.332-3.197c.622-1.93 2.128-2.9 4.201-2.9 1.995 0 3.452.97 4.116 2.624M25.038 16.86L34.7 31.261H18.771l-9.633-14.4zm-2.043 19.133V47.46c0 .106-.071.177-.177.177H20.61c-.107 0-.177-.071-.177-.177V35.993c0-.099.07-.17.177-.17h2.207c.106 0 .177.071.177.17m-5.701-.17c.106 0 .17.071.142.191L13.679 47.46c-.035.106-.107.177-.205.177h-2.015c-.128 0-.191-.071-.227-.177L7.476 36.014c-.036-.12.035-.19.155-.19h2.264c.12 0 .191.05.227.17l2.354 7.751h.057l2.292-7.752c.035-.12.107-.17.227-.17h2.241z"/></g></svg>